<mxfile host="65bd71144e">
    <diagram id="C5RBs43oDa-KdzZeNtuy" name="Page-1">
        <mxGraphModel dx="2097" dy="960" grid="1" gridSize="10" guides="1" tooltips="1" connect="1" arrows="1" fold="1" page="1" pageScale="1" pageWidth="827" pageHeight="1169" math="0" shadow="0">
            <root>
                <mxCell id="WIyWlLk6GJQsqaUBKTNV-0"/>
                <mxCell id="WIyWlLk6GJQsqaUBKTNV-1" parent="WIyWlLk6GJQsqaUBKTNV-0"/>
                <mxCell id="M7CGMbNuYNeq0SnUNNgH-6" value="ทบทวนสัญลักษณ์" style="swimlane;fontFamily=Sarabun;fontSource=https%3A%2F%2Ffonts.googleapis.com%2Fcss%3Ffamily%3DSarabun;" parent="WIyWlLk6GJQsqaUBKTNV-1" vertex="1">
                    <mxGeometry x="-720" y="20" width="650" height="290" as="geometry"/>
                </mxCell>
                <mxCell id="M7CGMbNuYNeq0SnUNNgH-2" value="&lt;font data-font-src=&quot;https://fonts.googleapis.com/css?family=Sarabun&quot; face=&quot;Sarabun&quot;&gt;เริ่มต้น&lt;/font&gt;" style="ellipse;whiteSpace=wrap;html=1;" parent="M7CGMbNuYNeq0SnUNNgH-6" vertex="1">
                    <mxGeometry x="20" y="40" width="130" height="30" as="geometry"/>
                </mxCell>
                <mxCell id="M7CGMbNuYNeq0SnUNNgH-5" value="" style="endArrow=classic;html=1;rounded=0;" parent="M7CGMbNuYNeq0SnUNNgH-6" edge="1">
                    <mxGeometry width="50" height="50" relative="1" as="geometry">
                        <mxPoint x="84.5" y="70" as="sourcePoint"/>
                        <mxPoint x="84.5" y="120" as="targetPoint"/>
                    </mxGeometry>
                </mxCell>
                <mxCell id="M7CGMbNuYNeq0SnUNNgH-3" value="&lt;font face=&quot;Sarabun&quot;&gt;สิ้นสุด&lt;/font&gt;" style="ellipse;whiteSpace=wrap;html=1;" parent="M7CGMbNuYNeq0SnUNNgH-6" vertex="1">
                    <mxGeometry x="150" y="90" width="130" height="30" as="geometry"/>
                </mxCell>
                <mxCell id="M7CGMbNuYNeq0SnUNNgH-4" value="" style="endArrow=classic;html=1;rounded=0;" parent="M7CGMbNuYNeq0SnUNNgH-6" edge="1">
                    <mxGeometry width="50" height="50" relative="1" as="geometry">
                        <mxPoint x="214.5" y="40" as="sourcePoint"/>
                        <mxPoint x="214.5" y="90" as="targetPoint"/>
                    </mxGeometry>
                </mxCell>
                <mxCell id="mvioNwK95yMqdUQ73LqQ-0" value="กระบวนการ" style="rounded=0;whiteSpace=wrap;html=1;fontFamily=Sarabun;fontSource=https%3A%2F%2Ffonts.googleapis.com%2Fcss%3Ffamily%3DSarabun;" parent="M7CGMbNuYNeq0SnUNNgH-6" vertex="1">
                    <mxGeometry x="320" y="70" width="120" height="30" as="geometry"/>
                </mxCell>
                <mxCell id="mvioNwK95yMqdUQ73LqQ-1" value="" style="endArrow=classic;html=1;rounded=0;" parent="M7CGMbNuYNeq0SnUNNgH-6" edge="1">
                    <mxGeometry width="50" height="50" relative="1" as="geometry">
                        <mxPoint x="379" y="40" as="sourcePoint"/>
                        <mxPoint x="379.5" y="70" as="targetPoint"/>
                    </mxGeometry>
                </mxCell>
                <mxCell id="mvioNwK95yMqdUQ73LqQ-2" value="" style="endArrow=classic;html=1;rounded=0;" parent="M7CGMbNuYNeq0SnUNNgH-6" edge="1">
                    <mxGeometry width="50" height="50" relative="1" as="geometry">
                        <mxPoint x="379.75" y="100" as="sourcePoint"/>
                        <mxPoint x="380.25" y="130" as="targetPoint"/>
                    </mxGeometry>
                </mxCell>
                <mxCell id="mvioNwK95yMqdUQ73LqQ-3" value="ประโยคเงื่อนไข" style="rhombus;whiteSpace=wrap;html=1;fontFamily=Sarabun;fontSource=https%3A%2F%2Ffonts.googleapis.com%2Fcss%3Ffamily%3DSarabun;" parent="M7CGMbNuYNeq0SnUNNgH-6" vertex="1">
                    <mxGeometry x="490" y="60" width="100" height="60" as="geometry"/>
                </mxCell>
                <mxCell id="mvioNwK95yMqdUQ73LqQ-4" value="" style="endArrow=classic;html=1;rounded=0;" parent="M7CGMbNuYNeq0SnUNNgH-6" edge="1">
                    <mxGeometry width="50" height="50" relative="1" as="geometry">
                        <mxPoint x="539.71" y="30" as="sourcePoint"/>
                        <mxPoint x="540.21" y="60" as="targetPoint"/>
                    </mxGeometry>
                </mxCell>
                <mxCell id="mvioNwK95yMqdUQ73LqQ-5" value="" style="endArrow=classic;html=1;rounded=0;" parent="M7CGMbNuYNeq0SnUNNgH-6" edge="1">
                    <mxGeometry width="50" height="50" relative="1" as="geometry">
                        <mxPoint x="539.71" y="120" as="sourcePoint"/>
                        <mxPoint x="540" y="175" as="targetPoint"/>
                    </mxGeometry>
                </mxCell>
                <mxCell id="mvioNwK95yMqdUQ73LqQ-7" value="จริง" style="edgeLabel;html=1;align=center;verticalAlign=middle;resizable=0;points=[];fontFamily=Sarabun;fontSource=https%3A%2F%2Ffonts.googleapis.com%2Fcss%3Ffamily%3DSarabun;" parent="mvioNwK95yMqdUQ73LqQ-5" vertex="1" connectable="0">
                    <mxGeometry x="-0.4142" y="-1" relative="1" as="geometry">
                        <mxPoint as="offset"/>
                    </mxGeometry>
                </mxCell>
                <mxCell id="mvioNwK95yMqdUQ73LqQ-6" value="" style="endArrow=classic;html=1;rounded=0;exitX=1;exitY=0.5;exitDx=0;exitDy=0;" parent="M7CGMbNuYNeq0SnUNNgH-6" source="mvioNwK95yMqdUQ73LqQ-3" edge="1">
                    <mxGeometry width="50" height="50" relative="1" as="geometry">
                        <mxPoint x="620" y="95" as="sourcePoint"/>
                        <mxPoint x="610" y="175" as="targetPoint"/>
                        <Array as="points">
                            <mxPoint x="610" y="90"/>
                        </Array>
                    </mxGeometry>
                </mxCell>
                <mxCell id="mvioNwK95yMqdUQ73LqQ-8" value="&lt;font data-font-src=&quot;https://fonts.googleapis.com/css?family=Sarabun&quot; face=&quot;Sarabun&quot;&gt;เท็จ&lt;/font&gt;" style="edgeLabel;html=1;align=center;verticalAlign=middle;resizable=0;points=[];" parent="mvioNwK95yMqdUQ73LqQ-6" vertex="1" connectable="0">
                    <mxGeometry x="-0.0019" y="-2" relative="1" as="geometry">
                        <mxPoint as="offset"/>
                    </mxGeometry>
                </mxCell>
                <mxCell id="mvioNwK95yMqdUQ73LqQ-9" value="&lt;font data-font-src=&quot;https://fonts.googleapis.com/css?family=Sarabun&quot; face=&quot;Sarabun&quot;&gt;ฟังก์ชัน/โมดูล&lt;/font&gt;" style="shape=process;whiteSpace=wrap;html=1;backgroundOutline=1;" parent="M7CGMbNuYNeq0SnUNNgH-6" vertex="1">
                    <mxGeometry x="25" y="180" width="120" height="30" as="geometry"/>
                </mxCell>
                <mxCell id="mvioNwK95yMqdUQ73LqQ-11" value="" style="endArrow=classic;html=1;rounded=0;" parent="M7CGMbNuYNeq0SnUNNgH-6" edge="1">
                    <mxGeometry width="50" height="50" relative="1" as="geometry">
                        <mxPoint x="84.70999999999998" y="150" as="sourcePoint"/>
                        <mxPoint x="85.20999999999998" y="180" as="targetPoint"/>
                    </mxGeometry>
                </mxCell>
                <mxCell id="mvioNwK95yMqdUQ73LqQ-12" value="" style="endArrow=classic;html=1;rounded=0;" parent="M7CGMbNuYNeq0SnUNNgH-6" edge="1">
                    <mxGeometry width="50" height="50" relative="1" as="geometry">
                        <mxPoint x="84.70999999999998" y="210" as="sourcePoint"/>
                        <mxPoint x="85.20999999999998" y="240" as="targetPoint"/>
                    </mxGeometry>
                </mxCell>
                <mxCell id="mvioNwK95yMqdUQ73LqQ-13" value="" style="strokeWidth=2;html=1;shape=mxgraph.flowchart.start_2;whiteSpace=wrap;" parent="M7CGMbNuYNeq0SnUNNgH-6" vertex="1">
                    <mxGeometry x="205" y="185" width="20" height="20" as="geometry"/>
                </mxCell>
                <mxCell id="mvioNwK95yMqdUQ73LqQ-16" value="" style="endArrow=classic;html=1;rounded=0;" parent="M7CGMbNuYNeq0SnUNNgH-6" edge="1">
                    <mxGeometry width="50" height="50" relative="1" as="geometry">
                        <mxPoint x="214.70999999999998" y="155" as="sourcePoint"/>
                        <mxPoint x="215.20999999999998" y="185" as="targetPoint"/>
                    </mxGeometry>
                </mxCell>
                <mxCell id="mvioNwK95yMqdUQ73LqQ-17" value="" style="endArrow=classic;html=1;rounded=0;entryX=0;entryY=0.5;entryDx=0;entryDy=0;entryPerimeter=0;" parent="M7CGMbNuYNeq0SnUNNgH-6" target="mvioNwK95yMqdUQ73LqQ-13" edge="1">
                    <mxGeometry width="50" height="50" relative="1" as="geometry">
                        <mxPoint x="189.99999999999997" y="155" as="sourcePoint"/>
                        <mxPoint x="190.49999999999997" y="185" as="targetPoint"/>
                        <Array as="points">
                            <mxPoint x="190" y="180"/>
                        </Array>
                    </mxGeometry>
                </mxCell>
                <mxCell id="mvioNwK95yMqdUQ73LqQ-18" value="" style="endArrow=classic;html=1;rounded=0;entryX=1;entryY=0.5;entryDx=0;entryDy=0;entryPerimeter=0;" parent="M7CGMbNuYNeq0SnUNNgH-6" target="mvioNwK95yMqdUQ73LqQ-13" edge="1">
                    <mxGeometry width="50" height="50" relative="1" as="geometry">
                        <mxPoint x="239.99999999999997" y="155" as="sourcePoint"/>
                        <mxPoint x="240.49999999999997" y="185" as="targetPoint"/>
                        <Array as="points">
                            <mxPoint x="240" y="180"/>
                        </Array>
                    </mxGeometry>
                </mxCell>
                <mxCell id="mvioNwK95yMqdUQ73LqQ-19" value="" style="endArrow=classic;html=1;rounded=0;" parent="M7CGMbNuYNeq0SnUNNgH-6" edge="1">
                    <mxGeometry width="50" height="50" relative="1" as="geometry">
                        <mxPoint x="214.70999999999998" y="205" as="sourcePoint"/>
                        <mxPoint x="215.20999999999998" y="235" as="targetPoint"/>
                    </mxGeometry>
                </mxCell>
                <mxCell id="mvioNwK95yMqdUQ73LqQ-20" value="&lt;font data-font-src=&quot;https://fonts.googleapis.com/css?family=Sarabun&quot; face=&quot;Sarabun&quot;&gt;ตัวเชื่อม&lt;/font&gt;" style="text;html=1;align=center;verticalAlign=middle;resizable=0;points=[];autosize=1;strokeColor=none;fillColor=none;" parent="M7CGMbNuYNeq0SnUNNgH-6" vertex="1">
                    <mxGeometry x="220" y="190" width="60" height="30" as="geometry"/>
                </mxCell>
                <mxCell id="mvioNwK95yMqdUQ73LqQ-25" value="" style="endArrow=classic;html=1;rounded=0;" parent="M7CGMbNuYNeq0SnUNNgH-6" edge="1">
                    <mxGeometry width="50" height="50" relative="1" as="geometry">
                        <mxPoint x="353.71" y="165" as="sourcePoint"/>
                        <mxPoint x="354.21" y="195" as="targetPoint"/>
                    </mxGeometry>
                </mxCell>
                <mxCell id="mvioNwK95yMqdUQ73LqQ-21" value="" style="verticalLabelPosition=bottom;verticalAlign=top;html=1;shape=offPageConnector;rounded=0;size=0.5;" parent="M7CGMbNuYNeq0SnUNNgH-6" vertex="1">
                    <mxGeometry x="339" y="195" width="30" height="30" as="geometry"/>
                </mxCell>
                <mxCell id="mvioNwK95yMqdUQ73LqQ-26" value="" style="endArrow=classic;html=1;rounded=0;" parent="M7CGMbNuYNeq0SnUNNgH-6" edge="1">
                    <mxGeometry width="50" height="50" relative="1" as="geometry">
                        <mxPoint x="405.71" y="195" as="sourcePoint"/>
                        <mxPoint x="406.21" y="225" as="targetPoint"/>
                    </mxGeometry>
                </mxCell>
                <mxCell id="mvioNwK95yMqdUQ73LqQ-27" value="" style="verticalLabelPosition=bottom;verticalAlign=top;html=1;shape=offPageConnector;rounded=0;size=0.5;" parent="M7CGMbNuYNeq0SnUNNgH-6" vertex="1">
                    <mxGeometry x="391" y="165" width="30" height="30" as="geometry"/>
                </mxCell>
                <mxCell id="mvioNwK95yMqdUQ73LqQ-28" value="หน้าต่อไป" style="text;html=1;align=center;verticalAlign=middle;resizable=0;points=[];autosize=1;strokeColor=none;fillColor=none;fontFamily=Sarabun;fontSource=https%3A%2F%2Ffonts.googleapis.com%2Fcss%3Ffamily%3DSarabun;" parent="M7CGMbNuYNeq0SnUNNgH-6" vertex="1">
                    <mxGeometry x="345" y="220" width="70" height="30" as="geometry"/>
                </mxCell>
                <mxCell id="mvioNwK95yMqdUQ73LqQ-29" value="ก" style="text;html=1;align=center;verticalAlign=middle;resizable=0;points=[];autosize=1;strokeColor=none;fillColor=none;fontFamily=Sarabun;fontSource=https%3A%2F%2Ffonts.googleapis.com%2Fcss%3Ffamily%3DSarabun;" parent="M7CGMbNuYNeq0SnUNNgH-6" vertex="1">
                    <mxGeometry x="339" y="190" width="30" height="30" as="geometry"/>
                </mxCell>
                <mxCell id="mvioNwK95yMqdUQ73LqQ-30" value="ก" style="text;html=1;align=center;verticalAlign=middle;resizable=0;points=[];autosize=1;strokeColor=none;fillColor=none;fontFamily=Sarabun;fontSource=https%3A%2F%2Ffonts.googleapis.com%2Fcss%3Ffamily%3DSarabun;" parent="M7CGMbNuYNeq0SnUNNgH-6" vertex="1">
                    <mxGeometry x="391" y="160" width="30" height="30" as="geometry"/>
                </mxCell>
                <mxCell id="mvioNwK95yMqdUQ73LqQ-32" value="แสดงผล/รับค่า" style="shape=parallelogram;perimeter=parallelogramPerimeter;whiteSpace=wrap;html=1;fixedSize=1;fontFamily=Sarabun;fontSource=https%3A%2F%2Ffonts.googleapis.com%2Fcss%3Ffamily%3DSarabun;" parent="M7CGMbNuYNeq0SnUNNgH-6" vertex="1">
                    <mxGeometry x="450" y="210" width="120" height="30" as="geometry"/>
                </mxCell>
                <mxCell id="mvioNwK95yMqdUQ73LqQ-33" value="" style="endArrow=classic;html=1;rounded=0;" parent="M7CGMbNuYNeq0SnUNNgH-6" edge="1">
                    <mxGeometry width="50" height="50" relative="1" as="geometry">
                        <mxPoint x="509.71" y="180" as="sourcePoint"/>
                        <mxPoint x="510.21" y="210" as="targetPoint"/>
                    </mxGeometry>
                </mxCell>
                <mxCell id="mvioNwK95yMqdUQ73LqQ-34" value="" style="endArrow=classic;html=1;rounded=0;" parent="M7CGMbNuYNeq0SnUNNgH-6" edge="1">
                    <mxGeometry width="50" height="50" relative="1" as="geometry">
                        <mxPoint x="509.71" y="240" as="sourcePoint"/>
                        <mxPoint x="510.21" y="270" as="targetPoint"/>
                    </mxGeometry>
                </mxCell>
                <mxCell id="mvioNwK95yMqdUQ73LqQ-36" value="แก้ไขโจทย์ปัญหา" style="swimlane;fontFamily=Sarabun;fontSource=https%3A%2F%2Ffonts.googleapis.com%2Fcss%3Ffamily%3DSarabun;" parent="WIyWlLk6GJQsqaUBKTNV-1" vertex="1">
                    <mxGeometry x="-650" y="640" width="885" height="3080" as="geometry"/>
                </mxCell>
                <mxCell id="4" value="" style="edgeStyle=none;html=1;" parent="mvioNwK95yMqdUQ73LqQ-36" source="mvioNwK95yMqdUQ73LqQ-35" target="3" edge="1">
                    <mxGeometry relative="1" as="geometry"/>
                </mxCell>
                <mxCell id="mvioNwK95yMqdUQ73LqQ-35" value="&lt;font data-font-src=&quot;https://fonts.googleapis.com/css?family=Sarabun&quot; face=&quot;Sarabun&quot;&gt;เริ่มต้น&lt;/font&gt;" style="ellipse;whiteSpace=wrap;html=1;" parent="mvioNwK95yMqdUQ73LqQ-36" vertex="1">
                    <mxGeometry x="305" y="40" width="130" height="30" as="geometry"/>
                </mxCell>
                <mxCell id="6" value="" style="edgeStyle=none;html=1;" parent="mvioNwK95yMqdUQ73LqQ-36" source="3" target="5" edge="1">
                    <mxGeometry relative="1" as="geometry"/>
                </mxCell>
                <mxCell id="3" value="เลือกประเภอของสินค้า" style="whiteSpace=wrap;html=1;" parent="mvioNwK95yMqdUQ73LqQ-36" vertex="1">
                    <mxGeometry x="310" y="150" width="120" height="60" as="geometry"/>
                </mxCell>
                <mxCell id="10" value="" style="edgeStyle=none;html=1;entryX=0.5;entryY=0;entryDx=0;entryDy=0;" parent="mvioNwK95yMqdUQ73LqQ-36" source="5" target="104" edge="1">
                    <mxGeometry relative="1" as="geometry">
                        <mxPoint x="440" y="330" as="targetPoint"/>
                        <Array as="points">
                            <mxPoint x="460" y="300"/>
                        </Array>
                    </mxGeometry>
                </mxCell>
                <mxCell id="5" value="ขนม หรือ เครื่องดื่ม" style="rhombus;whiteSpace=wrap;html=1;" parent="mvioNwK95yMqdUQ73LqQ-36" vertex="1">
                    <mxGeometry x="330" y="260" width="80" height="80" as="geometry"/>
                </mxCell>
                <mxCell id="12" value="" style="edgeStyle=none;html=1;exitX=0;exitY=0.5;exitDx=0;exitDy=0;entryX=0.5;entryY=0;entryDx=0;entryDy=0;" parent="mvioNwK95yMqdUQ73LqQ-36" source="5" target="103" edge="1">
                    <mxGeometry relative="1" as="geometry">
                        <mxPoint x="260" y="360" as="sourcePoint"/>
                        <mxPoint x="300" y="330" as="targetPoint"/>
                        <Array as="points">
                            <mxPoint x="280" y="300"/>
                        </Array>
                    </mxGeometry>
                </mxCell>
                <mxCell id="108" value="F" style="edgeStyle=none;html=1;entryX=0.5;entryY=0;entryDx=0;entryDy=0;" parent="mvioNwK95yMqdUQ73LqQ-36" source="100" target="101" edge="1">
                    <mxGeometry relative="1" as="geometry"/>
                </mxCell>
                <mxCell id="100" value="ขนมชั้น" style="rhombus;whiteSpace=wrap;html=1;" parent="mvioNwK95yMqdUQ73LqQ-36" vertex="1">
                    <mxGeometry x="240" y="440" width="80" height="80" as="geometry"/>
                </mxCell>
                <mxCell id="101" value="ฝอยทอง" style="rhombus;whiteSpace=wrap;html=1;" parent="mvioNwK95yMqdUQ73LqQ-36" vertex="1">
                    <mxGeometry x="240" y="560" width="80" height="80" as="geometry"/>
                </mxCell>
                <mxCell id="107" style="edgeStyle=none;html=1;entryX=0.5;entryY=0;entryDx=0;entryDy=0;" parent="mvioNwK95yMqdUQ73LqQ-36" source="103" target="100" edge="1">
                    <mxGeometry relative="1" as="geometry"/>
                </mxCell>
                <mxCell id="103" value="ขนม" style="rounded=0;whiteSpace=wrap;html=1;" parent="mvioNwK95yMqdUQ73LqQ-36" vertex="1">
                    <mxGeometry x="220" y="330" width="120" height="60" as="geometry"/>
                </mxCell>
                <mxCell id="104" value="เครืองดื่ม" style="rounded=0;whiteSpace=wrap;html=1;" parent="mvioNwK95yMqdUQ73LqQ-36" vertex="1">
                    <mxGeometry x="400" y="330" width="120" height="60" as="geometry"/>
                </mxCell>
                <mxCell id="114" value="เพิ่มใส่ตระกร้า" style="rounded=0;whiteSpace=wrap;html=1;" parent="mvioNwK95yMqdUQ73LqQ-36" vertex="1">
                    <mxGeometry x="130" y="460" width="80" height="40" as="geometry"/>
                </mxCell>
                <mxCell id="116" value="จำนวนรวม+จำนวนที่มี" style="rounded=0;whiteSpace=wrap;html=1;" parent="mvioNwK95yMqdUQ73LqQ-36" vertex="1">
                    <mxGeometry x="-20" y="450" width="120" height="60" as="geometry"/>
                </mxCell>
                <mxCell id="117" value="เพิ่มใส่ตระกร้า" style="rounded=0;whiteSpace=wrap;html=1;" parent="mvioNwK95yMqdUQ73LqQ-36" vertex="1">
                    <mxGeometry x="130" y="580" width="80" height="40" as="geometry"/>
                </mxCell>
                <mxCell id="119" value="แก้ไขโจทย์ปัญหา" style="swimlane;fontFamily=Sarabun;fontSource=https%3A%2F%2Ffonts.googleapis.com%2Fcss%3Ffamily%3DSarabun;" parent="mvioNwK95yMqdUQ73LqQ-36" vertex="1">
                    <mxGeometry width="885" height="3080" as="geometry"/>
                </mxCell>
                <mxCell id="120" value="" style="edgeStyle=none;html=1;" parent="119" source="121" target="124" edge="1">
                    <mxGeometry relative="1" as="geometry"/>
                </mxCell>
                <mxCell id="121" value="&lt;font data-font-src=&quot;https://fonts.googleapis.com/css?family=Sarabun&quot; face=&quot;Sarabun&quot;&gt;เริ่มต้น&lt;/font&gt;" style="ellipse;whiteSpace=wrap;html=1;" parent="119" vertex="1">
                    <mxGeometry x="305" y="40" width="130" height="30" as="geometry"/>
                </mxCell>
                <mxCell id="123" value="" style="edgeStyle=none;html=1;" parent="119" source="124" target="126" edge="1">
                    <mxGeometry relative="1" as="geometry"/>
                </mxCell>
                <mxCell id="124" value="เลือกประเภอของสินค้า" style="whiteSpace=wrap;html=1;" parent="119" vertex="1">
                    <mxGeometry x="310" y="150" width="120" height="60" as="geometry"/>
                </mxCell>
                <mxCell id="125" value="" style="edgeStyle=none;html=1;entryX=0.5;entryY=0;entryDx=0;entryDy=0;" parent="119" source="126" target="135" edge="1">
                    <mxGeometry relative="1" as="geometry">
                        <mxPoint x="440" y="330" as="targetPoint"/>
                        <Array as="points">
                            <mxPoint x="460" y="300"/>
                        </Array>
                    </mxGeometry>
                </mxCell>
                <mxCell id="126" value="ขนม หรือ เครื่องดื่ม" style="rhombus;whiteSpace=wrap;html=1;" parent="119" vertex="1">
                    <mxGeometry x="330" y="260" width="80" height="80" as="geometry"/>
                </mxCell>
                <mxCell id="127" value="" style="edgeStyle=none;html=1;exitX=0;exitY=0.5;exitDx=0;exitDy=0;entryX=0.5;entryY=0;entryDx=0;entryDy=0;" parent="119" source="126" target="134" edge="1">
                    <mxGeometry relative="1" as="geometry">
                        <mxPoint x="260" y="360" as="sourcePoint"/>
                        <mxPoint x="300" y="330" as="targetPoint"/>
                        <Array as="points">
                            <mxPoint x="280" y="300"/>
                        </Array>
                    </mxGeometry>
                </mxCell>
                <mxCell id="128" value="F" style="edgeStyle=none;html=1;entryX=0.5;entryY=0;entryDx=0;entryDy=0;" parent="119" source="129" target="131" edge="1">
                    <mxGeometry relative="1" as="geometry"/>
                </mxCell>
                <mxCell id="129" value="ขนมชั้น" style="rhombus;whiteSpace=wrap;html=1;" parent="119" vertex="1">
                    <mxGeometry x="240" y="440" width="80" height="80" as="geometry"/>
                </mxCell>
                <mxCell id="310" style="edgeStyle=none;html=1;entryX=0.5;entryY=0;entryDx=0;entryDy=0;" parent="119" source="131" target="102" edge="1">
                    <mxGeometry relative="1" as="geometry"/>
                </mxCell>
                <mxCell id="311" value="F" style="edgeLabel;html=1;align=center;verticalAlign=middle;resizable=0;points=[];" parent="310" vertex="1" connectable="0">
                    <mxGeometry x="-0.3548" y="1" relative="1" as="geometry">
                        <mxPoint y="7" as="offset"/>
                    </mxGeometry>
                </mxCell>
                <mxCell id="131" value="ฝอยทอง" style="rhombus;whiteSpace=wrap;html=1;" parent="119" vertex="1">
                    <mxGeometry x="240" y="560" width="80" height="80" as="geometry"/>
                </mxCell>
                <mxCell id="133" style="edgeStyle=none;html=1;entryX=0.5;entryY=0;entryDx=0;entryDy=0;" parent="119" source="134" target="129" edge="1">
                    <mxGeometry relative="1" as="geometry"/>
                </mxCell>
                <mxCell id="134" value="ขนม" style="rounded=0;whiteSpace=wrap;html=1;" parent="119" vertex="1">
                    <mxGeometry x="220" y="330" width="120" height="60" as="geometry"/>
                </mxCell>
                <mxCell id="312" style="edgeStyle=none;html=1;entryX=0.5;entryY=0;entryDx=0;entryDy=0;" parent="119" source="135" target="168" edge="1">
                    <mxGeometry relative="1" as="geometry"/>
                </mxCell>
                <mxCell id="135" value="เครืองดื่ม" style="rounded=0;whiteSpace=wrap;html=1;" parent="119" vertex="1">
                    <mxGeometry x="400" y="330" width="120" height="60" as="geometry"/>
                </mxCell>
                <mxCell id="136" value="เพิ่มใส่ตระกร้า" style="rounded=0;whiteSpace=wrap;html=1;" parent="119" vertex="1">
                    <mxGeometry x="130" y="460" width="80" height="40" as="geometry"/>
                </mxCell>
                <mxCell id="138" value="เพิ่มใส่ตระกร้า" style="rounded=0;whiteSpace=wrap;html=1;" parent="119" vertex="1">
                    <mxGeometry x="130" y="580" width="80" height="40" as="geometry"/>
                </mxCell>
                <mxCell id="163" style="edgeStyle=none;html=1;" parent="119" edge="1">
                    <mxGeometry relative="1" as="geometry">
                        <mxPoint x="98" y="600" as="targetPoint"/>
                        <mxPoint x="128" y="600" as="sourcePoint"/>
                    </mxGeometry>
                </mxCell>
                <mxCell id="164" value="จำนวนรวม+จำนวนที่มี" style="rounded=0;whiteSpace=wrap;html=1;" parent="119" vertex="1">
                    <mxGeometry x="-20" y="570" width="120" height="60" as="geometry"/>
                </mxCell>
                <mxCell id="165" style="edgeStyle=none;html=1;entryX=1;entryY=0.5;entryDx=0;entryDy=0;" parent="119" target="166" edge="1">
                    <mxGeometry relative="1" as="geometry">
                        <mxPoint x="100" y="730" as="targetPoint"/>
                        <mxPoint x="130" y="720" as="sourcePoint"/>
                    </mxGeometry>
                </mxCell>
                <mxCell id="166" value="จำนวนรวม+จำนวนที่มี" style="rounded=0;whiteSpace=wrap;html=1;" parent="119" vertex="1">
                    <mxGeometry x="-20" y="690" width="120" height="60" as="geometry"/>
                </mxCell>
                <mxCell id="201" value="F" style="edgeStyle=none;html=1;entryX=0.5;entryY=0;entryDx=0;entryDy=0;" parent="119" source="168" target="170" edge="1">
                    <mxGeometry relative="1" as="geometry"/>
                </mxCell>
                <mxCell id="209" value="T" style="edgeStyle=none;html=1;entryX=0;entryY=0.5;entryDx=0;entryDy=0;" parent="119" source="168" target="203" edge="1">
                    <mxGeometry x="-0.3333" relative="1" as="geometry">
                        <mxPoint as="offset"/>
                    </mxGeometry>
                </mxCell>
                <mxCell id="168" value="ขนมชั้น" style="rhombus;whiteSpace=wrap;html=1;" parent="119" vertex="1">
                    <mxGeometry x="420" y="440" width="80" height="80" as="geometry"/>
                </mxCell>
                <mxCell id="202" value="F" style="edgeStyle=none;html=1;entryX=0.5;entryY=0;entryDx=0;entryDy=0;" parent="119" source="170" target="171" edge="1">
                    <mxGeometry relative="1" as="geometry"/>
                </mxCell>
                <mxCell id="211" value="T" style="edgeStyle=none;html=1;" parent="119" source="170" target="204" edge="1">
                    <mxGeometry x="-0.3333" relative="1" as="geometry">
                        <mxPoint as="offset"/>
                    </mxGeometry>
                </mxCell>
                <mxCell id="170" value="ขนมชั้น" style="rhombus;whiteSpace=wrap;html=1;" parent="119" vertex="1">
                    <mxGeometry x="420" y="560" width="80" height="80" as="geometry"/>
                </mxCell>
                <mxCell id="213" value="T" style="edgeStyle=none;html=1;" parent="119" source="171" target="205" edge="1">
                    <mxGeometry x="-0.3333" relative="1" as="geometry">
                        <mxPoint as="offset"/>
                    </mxGeometry>
                </mxCell>
                <mxCell id="225" style="edgeStyle=none;html=1;entryX=0.5;entryY=0;entryDx=0;entryDy=0;" parent="119" source="171" target="224" edge="1">
                    <mxGeometry relative="1" as="geometry"/>
                </mxCell>
                <mxCell id="307" value="F" style="edgeLabel;html=1;align=center;verticalAlign=middle;resizable=0;points=[];" parent="225" vertex="1" connectable="0">
                    <mxGeometry x="-0.1597" relative="1" as="geometry">
                        <mxPoint y="2" as="offset"/>
                    </mxGeometry>
                </mxCell>
                <mxCell id="171" value="ขนมชั้น" style="rhombus;whiteSpace=wrap;html=1;" parent="119" vertex="1">
                    <mxGeometry x="420" y="680" width="80" height="80" as="geometry"/>
                </mxCell>
                <mxCell id="210" style="edgeStyle=none;html=1;entryX=0;entryY=0.5;entryDx=0;entryDy=0;" parent="119" source="203" target="137" edge="1">
                    <mxGeometry relative="1" as="geometry"/>
                </mxCell>
                <mxCell id="203" value="เพิ่มใส่ตระกร้า" style="rounded=0;whiteSpace=wrap;html=1;" parent="119" vertex="1">
                    <mxGeometry x="530" y="460" width="80" height="40" as="geometry"/>
                </mxCell>
                <mxCell id="212" style="edgeStyle=none;html=1;" parent="119" source="204" target="207" edge="1">
                    <mxGeometry relative="1" as="geometry"/>
                </mxCell>
                <mxCell id="204" value="เพิ่มใส่ตระกร้า" style="rounded=0;whiteSpace=wrap;html=1;" parent="119" vertex="1">
                    <mxGeometry x="530" y="580" width="80" height="40" as="geometry"/>
                </mxCell>
                <mxCell id="214" style="edgeStyle=none;html=1;entryX=0;entryY=0.5;entryDx=0;entryDy=0;" parent="119" source="205" target="206" edge="1">
                    <mxGeometry relative="1" as="geometry"/>
                </mxCell>
                <mxCell id="205" value="เพิ่มใส่ตระกร้า" style="rounded=0;whiteSpace=wrap;html=1;" parent="119" vertex="1">
                    <mxGeometry x="530" y="700" width="80" height="40" as="geometry"/>
                </mxCell>
                <mxCell id="137" value="จำนวนรวม+จำนวนที่มี" style="rounded=0;whiteSpace=wrap;html=1;" parent="119" vertex="1">
                    <mxGeometry x="650" y="450" width="120" height="60" as="geometry"/>
                </mxCell>
                <mxCell id="206" value="จำนวนรวม+จำนวนที่มี" style="rounded=0;whiteSpace=wrap;html=1;" parent="119" vertex="1">
                    <mxGeometry x="650" y="690" width="120" height="60" as="geometry"/>
                </mxCell>
                <mxCell id="207" value="จำนวนรวม+จำนวนที่มี" style="rounded=0;whiteSpace=wrap;html=1;" parent="119" vertex="1">
                    <mxGeometry x="650" y="570" width="120" height="60" as="geometry"/>
                </mxCell>
                <mxCell id="222" value="ทำรายการใหม่" style="rounded=0;whiteSpace=wrap;html=1;" parent="119" vertex="1">
                    <mxGeometry x="220" y="811" width="120" height="60" as="geometry"/>
                </mxCell>
                <mxCell id="221" style="edgeStyle=none;html=1;exitX=0.5;exitY=1;exitDx=0;exitDy=0;" parent="119" source="102" edge="1">
                    <mxGeometry relative="1" as="geometry">
                        <mxPoint x="281" y="811" as="targetPoint"/>
                        <mxPoint x="281" y="770" as="sourcePoint"/>
                    </mxGeometry>
                </mxCell>
                <mxCell id="306" value="F" style="edgeLabel;html=1;align=center;verticalAlign=middle;resizable=0;points=[];" parent="221" vertex="1" connectable="0">
                    <mxGeometry x="-0.3031" relative="1" as="geometry">
                        <mxPoint y="4" as="offset"/>
                    </mxGeometry>
                </mxCell>
                <mxCell id="224" value="ทำรายการใหม่" style="rounded=0;whiteSpace=wrap;html=1;" parent="119" vertex="1">
                    <mxGeometry x="400" y="811" width="120" height="60" as="geometry"/>
                </mxCell>
                <mxCell id="245" style="edgeStyle=none;html=1;entryX=0.5;entryY=0;entryDx=0;entryDy=0;" parent="119" source="239" edge="1">
                    <mxGeometry relative="1" as="geometry">
                        <mxPoint x="370" y="1020" as="targetPoint"/>
                    </mxGeometry>
                </mxCell>
                <mxCell id="239" value="" style="ellipse;whiteSpace=wrap;html=1;aspect=fixed;" parent="119" vertex="1">
                    <mxGeometry x="330" y="900" width="80" height="80" as="geometry"/>
                </mxCell>
                <mxCell id="299" style="edgeStyle=none;html=1;exitX=0;exitY=0.5;exitDx=0;exitDy=0;entryX=0;entryY=0.5;entryDx=0;entryDy=0;" parent="119" source="331" edge="1" target="542">
                    <mxGeometry relative="1" as="geometry">
                        <mxPoint x="368.5" y="1300" as="sourcePoint"/>
                        <mxPoint x="770" y="2330" as="targetPoint"/>
                        <Array as="points">
                            <mxPoint x="130" y="1380"/>
                            <mxPoint x="130" y="2240"/>
                        </Array>
                    </mxGeometry>
                </mxCell>
                <mxCell id="334" value="F" style="edgeLabel;html=1;align=center;verticalAlign=middle;resizable=0;points=[];" parent="299" vertex="1" connectable="0">
                    <mxGeometry x="-0.2785" relative="1" as="geometry">
                        <mxPoint x="-1" as="offset"/>
                    </mxGeometry>
                </mxCell>
                <mxCell id="102" value="ลำไยอบแแห้ง" style="rhombus;whiteSpace=wrap;html=1;" parent="119" vertex="1">
                    <mxGeometry x="240" y="680" width="80" height="80" as="geometry"/>
                </mxCell>
                <mxCell id="139" value="เพิ่มใส่ตระกร้า" style="rounded=0;whiteSpace=wrap;html=1;" parent="119" vertex="1">
                    <mxGeometry x="130" y="700" width="80" height="40" as="geometry"/>
                </mxCell>
                <mxCell id="112" value="T" style="edgeStyle=none;html=1;entryX=1;entryY=0.5;entryDx=0;entryDy=0;" parent="119" edge="1">
                    <mxGeometry x="-0.3333" relative="1" as="geometry">
                        <mxPoint x="210" y="720" as="targetPoint"/>
                        <mxPoint x="240" y="720" as="sourcePoint"/>
                        <Array as="points"/>
                        <mxPoint as="offset"/>
                    </mxGeometry>
                </mxCell>
                <mxCell id="327" style="edgeStyle=none;html=1;entryX=0.5;entryY=0;entryDx=0;entryDy=0;" parent="119" edge="1" target="583">
                    <mxGeometry relative="1" as="geometry">
                        <mxPoint x="370" y="1080" as="sourcePoint"/>
                        <mxPoint x="370" y="1120" as="targetPoint"/>
                    </mxGeometry>
                </mxCell>
                <mxCell id="331" value="ได้ทอนหรือ&lt;br&gt;ไม่" style="rhombus;whiteSpace=wrap;html=1;" parent="119" vertex="1">
                    <mxGeometry x="330" y="1340" width="80" height="80" as="geometry"/>
                </mxCell>
                <mxCell id="352" value="เครื่องมีเงินอยู่เท่าไหร่" style="rounded=0;whiteSpace=wrap;html=1;" parent="119" vertex="1">
                    <mxGeometry x="310" y="1020" width="120" height="60" as="geometry"/>
                </mxCell>
                <mxCell id="397" style="edgeStyle=none;html=1;entryX=0.5;entryY=0;entryDx=0;entryDy=0;" parent="119" target="354" edge="1">
                    <mxGeometry relative="1" as="geometry">
                        <mxPoint x="370" y="1180" as="sourcePoint"/>
                    </mxGeometry>
                </mxCell>
                <mxCell id="396" style="edgeStyle=none;html=1;entryX=0.5;entryY=0;entryDx=0;entryDy=0;" parent="119" source="354" target="331" edge="1">
                    <mxGeometry relative="1" as="geometry"/>
                </mxCell>
                <mxCell id="354" value="แสดงเงินที่ได้รับ" style="shape=parallelogram;perimeter=parallelogramPerimeter;whiteSpace=wrap;html=1;fixedSize=1;" parent="119" vertex="1">
                    <mxGeometry x="310" y="1230" width="120" height="60" as="geometry"/>
                </mxCell>
                <mxCell id="400" style="edgeStyle=none;html=1;entryX=1;entryY=0.5;entryDx=0;entryDy=0;" parent="119" source="357" target="385" edge="1">
                    <mxGeometry relative="1" as="geometry"/>
                </mxCell>
                <mxCell id="357" value="ทอนเป็น&lt;br&gt;เหรียญหรือแบงค์" style="rhombus;whiteSpace=wrap;html=1;" parent="119" vertex="1">
                    <mxGeometry x="770" y="1460" width="80" height="80" as="geometry"/>
                </mxCell>
                <mxCell id="425" style="edgeStyle=none;html=1;entryX=0.5;entryY=0;entryDx=0;entryDy=0;" parent="119" source="358" target="435" edge="1">
                    <mxGeometry relative="1" as="geometry">
                        <mxPoint x="230" y="1660" as="targetPoint"/>
                    </mxGeometry>
                </mxCell>
                <mxCell id="358" value="ใช้เหรีญณอะไร" style="rounded=0;whiteSpace=wrap;html=1;" parent="119" vertex="1">
                    <mxGeometry x="610" y="1560" width="120" height="60" as="geometry"/>
                </mxCell>
                <mxCell id="424" style="edgeStyle=none;html=1;entryX=0.5;entryY=0;entryDx=0;entryDy=0;" parent="119" source="385" target="358" edge="1">
                    <mxGeometry relative="1" as="geometry"/>
                </mxCell>
                <mxCell id="385" value="เหรียญ" style="rounded=0;whiteSpace=wrap;html=1;" parent="119" vertex="1">
                    <mxGeometry x="610" y="1470" width="120" height="60" as="geometry"/>
                </mxCell>
                <mxCell id="435" value="เหรียญสิบ" style="rhombus;whiteSpace=wrap;html=1;" parent="119" vertex="1">
                    <mxGeometry x="630" y="1660" width="80" height="80" as="geometry"/>
                </mxCell>
                <mxCell id="439" value="เหรียญห้า" style="rhombus;whiteSpace=wrap;html=1;" parent="119" vertex="1">
                    <mxGeometry x="630" y="1780" width="80" height="80" as="geometry"/>
                </mxCell>
                <mxCell id="460" style="edgeStyle=none;html=1;entryX=1;entryY=0.5;entryDx=0;entryDy=0;exitX=0;exitY=0.5;exitDx=0;exitDy=0;" parent="119" source="550" target="452" edge="1">
                    <mxGeometry relative="1" as="geometry">
                        <mxPoint x="430" y="1820" as="sourcePoint"/>
                    </mxGeometry>
                </mxCell>
                <mxCell id="443" value="เหรียญสอง" style="rhombus;whiteSpace=wrap;html=1;" parent="119" vertex="1">
                    <mxGeometry x="630" y="1900" width="80" height="80" as="geometry"/>
                </mxCell>
                <mxCell id="459" style="edgeStyle=none;html=1;entryX=1;entryY=0.5;entryDx=0;entryDy=0;exitX=0;exitY=0.5;exitDx=0;exitDy=0;" parent="119" source="551" target="453" edge="1">
                    <mxGeometry relative="1" as="geometry">
                        <mxPoint x="410" y="1940" as="sourcePoint"/>
                    </mxGeometry>
                </mxCell>
                <mxCell id="458" style="edgeStyle=none;html=1;entryX=1;entryY=0.5;entryDx=0;entryDy=0;exitX=0;exitY=0.5;exitDx=0;exitDy=0;" parent="119" source="552" edge="1">
                    <mxGeometry relative="1" as="geometry">
                        <mxPoint x="370" y="2060" as="targetPoint"/>
                        <mxPoint x="410" y="2060" as="sourcePoint"/>
                    </mxGeometry>
                </mxCell>
                <mxCell id="436" style="edgeStyle=none;html=1;entryX=1;entryY=0.5;entryDx=0;entryDy=0;" parent="119" source="435" target="547" edge="1">
                    <mxGeometry relative="1" as="geometry">
                        <mxPoint x="530" y="1700" as="targetPoint"/>
                    </mxGeometry>
                </mxCell>
                <mxCell id="473" value="T" style="edgeLabel;html=1;align=center;verticalAlign=middle;resizable=0;points=[];" parent="436" vertex="1" connectable="0">
                    <mxGeometry x="-0.6133" relative="1" as="geometry">
                        <mxPoint x="-1" as="offset"/>
                    </mxGeometry>
                </mxCell>
                <mxCell id="438" style="edgeStyle=none;html=1;entryX=0.5;entryY=0;entryDx=0;entryDy=0;" parent="119" source="435" target="439" edge="1">
                    <mxGeometry relative="1" as="geometry">
                        <mxPoint x="230" y="1780" as="targetPoint"/>
                    </mxGeometry>
                </mxCell>
                <mxCell id="465" value="F" style="edgeLabel;html=1;align=center;verticalAlign=middle;resizable=0;points=[];" parent="438" vertex="1" connectable="0">
                    <mxGeometry x="-0.5" relative="1" as="geometry">
                        <mxPoint as="offset"/>
                    </mxGeometry>
                </mxCell>
                <mxCell id="442" style="edgeStyle=none;html=1;entryX=0.5;entryY=0;entryDx=0;entryDy=0;" parent="119" source="439" target="443" edge="1">
                    <mxGeometry relative="1" as="geometry">
                        <mxPoint x="230" y="1900" as="targetPoint"/>
                    </mxGeometry>
                </mxCell>
                <mxCell id="466" value="F" style="edgeLabel;html=1;align=center;verticalAlign=middle;resizable=0;points=[];" parent="442" vertex="1" connectable="0">
                    <mxGeometry x="-0.5333" relative="1" as="geometry">
                        <mxPoint as="offset"/>
                    </mxGeometry>
                </mxCell>
                <mxCell id="444" style="edgeStyle=none;html=1;entryX=0.4;entryY=0.167;entryDx=0;entryDy=0;entryPerimeter=0;" parent="119" source="443" target="481" edge="1">
                    <mxGeometry relative="1" as="geometry">
                        <mxPoint x="670" y="2020" as="targetPoint"/>
                    </mxGeometry>
                </mxCell>
                <mxCell id="467" value="F" style="edgeLabel;html=1;align=center;verticalAlign=middle;resizable=0;points=[];" parent="444" vertex="1" connectable="0">
                    <mxGeometry x="-0.4667" y="-1" relative="1" as="geometry">
                        <mxPoint x="1" y="-3" as="offset"/>
                    </mxGeometry>
                </mxCell>
                <mxCell id="445" style="edgeStyle=none;html=1;entryX=1;entryY=0.5;entryDx=0;entryDy=0;" parent="119" source="443" target="551" edge="1">
                    <mxGeometry relative="1" as="geometry">
                        <mxPoint x="530" y="1940" as="targetPoint"/>
                    </mxGeometry>
                </mxCell>
                <mxCell id="470" value="T" style="edgeLabel;html=1;align=center;verticalAlign=middle;resizable=0;points=[];" parent="445" vertex="1" connectable="0">
                    <mxGeometry x="-0.6" y="2" relative="1" as="geometry">
                        <mxPoint as="offset"/>
                    </mxGeometry>
                </mxCell>
                <mxCell id="451" value="พอหรือไม่" style="rhombus;whiteSpace=wrap;html=1;" parent="119" vertex="1">
                    <mxGeometry x="290" y="1660" width="80" height="80" as="geometry"/>
                </mxCell>
                <mxCell id="452" value="พอหรือไม่" style="rhombus;whiteSpace=wrap;html=1;" parent="119" vertex="1">
                    <mxGeometry x="290" y="1780" width="80" height="80" as="geometry"/>
                </mxCell>
                <mxCell id="453" value="พอหรือไม่" style="rhombus;whiteSpace=wrap;html=1;" parent="119" vertex="1">
                    <mxGeometry x="290" y="1900" width="80" height="80" as="geometry"/>
                </mxCell>
                <mxCell id="481" value="เหรียญบาท" style="rounded=0;whiteSpace=wrap;html=1;" parent="119" vertex="1">
                    <mxGeometry x="630" y="2030" width="100" height="60" as="geometry"/>
                </mxCell>
                <mxCell id="484" value="พอหรือไม่" style="rhombus;whiteSpace=wrap;html=1;" parent="119" vertex="1">
                    <mxGeometry x="290" y="2020" width="80" height="80" as="geometry"/>
                </mxCell>
                <mxCell id="485" style="edgeStyle=none;html=1;entryX=0.5;entryY=1;entryDx=0;entryDy=0;" parent="119" source="484" target="499" edge="1">
                    <mxGeometry relative="1" as="geometry">
                        <mxPoint x="530" y="1300" as="targetPoint"/>
                        <Array as="points">
                            <mxPoint x="330" y="2120"/>
                            <mxPoint x="210" y="2120"/>
                            <mxPoint x="210" y="1440"/>
                            <mxPoint x="530" y="1440"/>
                            <mxPoint x="690" y="1440"/>
                        </Array>
                    </mxGeometry>
                </mxCell>
                <mxCell id="488" value="F" style="edgeLabel;html=1;align=center;verticalAlign=middle;resizable=0;points=[];" parent="485" vertex="1" connectable="0">
                    <mxGeometry x="-0.9897" relative="1" as="geometry">
                        <mxPoint y="3" as="offset"/>
                    </mxGeometry>
                </mxCell>
                <mxCell id="502" style="edgeStyle=none;html=1;entryX=1;entryY=0.5;entryDx=0;entryDy=0;" parent="119" source="499" target="500" edge="1">
                    <mxGeometry relative="1" as="geometry"/>
                </mxCell>
                <mxCell id="503" value="F" style="edgeLabel;html=1;align=center;verticalAlign=middle;resizable=0;points=[];" parent="502" vertex="1" connectable="0">
                    <mxGeometry x="-0.3143" y="-1" relative="1" as="geometry">
                        <mxPoint as="offset"/>
                    </mxGeometry>
                </mxCell>
                <mxCell id="499" value="คืนเงิน" style="rhombus;whiteSpace=wrap;html=1;" parent="119" vertex="1">
                    <mxGeometry x="650" y="960" width="80" height="80" as="geometry"/>
                </mxCell>
                <mxCell id="500" value="ชำระใหม่" style="rounded=0;whiteSpace=wrap;html=1;" parent="119" vertex="1">
                    <mxGeometry x="490" y="970" width="120" height="60" as="geometry"/>
                </mxCell>
                <mxCell id="495" style="edgeStyle=none;html=1;" parent="119" edge="1">
                    <mxGeometry relative="1" as="geometry">
                        <mxPoint x="370" y="999.29" as="targetPoint"/>
                        <mxPoint x="490" y="999.29" as="sourcePoint"/>
                    </mxGeometry>
                </mxCell>
                <mxCell id="496" value="T" style="edgeLabel;html=1;align=center;verticalAlign=middle;resizable=0;points=[];" parent="495" vertex="1" connectable="0">
                    <mxGeometry x="-0.6373" y="1" relative="1" as="geometry">
                        <mxPoint x="302" y="109" as="offset"/>
                    </mxGeometry>
                </mxCell>
                <mxCell id="542" value="" style="ellipse;whiteSpace=wrap;html=1;aspect=fixed;" vertex="1" parent="119">
                    <mxGeometry x="780" y="2310" width="80" height="80" as="geometry"/>
                </mxCell>
                <mxCell id="461" style="edgeStyle=none;html=1;entryX=0;entryY=0;entryDx=0;entryDy=0;" parent="119" source="451" edge="1" target="542">
                    <mxGeometry relative="1" as="geometry">
                        <mxPoint x="770" y="2310" as="targetPoint"/>
                        <Array as="points">
                            <mxPoint x="250" y="1700"/>
                            <mxPoint x="250" y="2160"/>
                        </Array>
                    </mxGeometry>
                </mxCell>
                <mxCell id="474" value="T" style="edgeLabel;html=1;align=center;verticalAlign=middle;resizable=0;points=[];" parent="461" vertex="1" connectable="0">
                    <mxGeometry x="-0.9363" y="-1" relative="1" as="geometry">
                        <mxPoint as="offset"/>
                    </mxGeometry>
                </mxCell>
                <mxCell id="544" value="สรุปเงิน(เหรีญย,แบงค์)&lt;br&gt;ที่เหลือ" style="rounded=0;whiteSpace=wrap;html=1;" vertex="1" parent="119">
                    <mxGeometry x="760" y="2440" width="120" height="60" as="geometry"/>
                </mxCell>
                <mxCell id="546" value="แจ้งเตือนไปยังแอดมิน" style="rounded=0;whiteSpace=wrap;html=1;" vertex="1" parent="119">
                    <mxGeometry x="760" y="2540" width="120" height="60" as="geometry"/>
                </mxCell>
                <mxCell id="545" style="edgeStyle=none;html=1;" edge="1" parent="119" source="544" target="546">
                    <mxGeometry relative="1" as="geometry">
                        <mxPoint x="820" y="2560" as="targetPoint"/>
                    </mxGeometry>
                </mxCell>
                <mxCell id="547" value="กี่่เหรียญ" style="rhombus;whiteSpace=wrap;html=1;" vertex="1" parent="119">
                    <mxGeometry x="435" y="1660" width="80" height="80" as="geometry"/>
                </mxCell>
                <mxCell id="550" value="กี่เหรียญ" style="rhombus;whiteSpace=wrap;html=1;" vertex="1" parent="119">
                    <mxGeometry x="435" y="1780" width="80" height="80" as="geometry"/>
                </mxCell>
                <mxCell id="440" style="edgeStyle=none;html=1;entryX=1;entryY=0.5;entryDx=0;entryDy=0;" parent="119" source="439" edge="1" target="550">
                    <mxGeometry relative="1" as="geometry">
                        <mxPoint x="530" y="1820" as="targetPoint"/>
                    </mxGeometry>
                </mxCell>
                <mxCell id="469" value="T" style="edgeLabel;html=1;align=center;verticalAlign=middle;resizable=0;points=[];" parent="440" vertex="1" connectable="0">
                    <mxGeometry x="-0.4667" relative="1" as="geometry">
                        <mxPoint x="5" as="offset"/>
                    </mxGeometry>
                </mxCell>
                <mxCell id="551" value="กี่เหรียญ" style="rhombus;whiteSpace=wrap;html=1;" vertex="1" parent="119">
                    <mxGeometry x="435" y="1900" width="80" height="80" as="geometry"/>
                </mxCell>
                <mxCell id="552" value="กี่เหรียญ" style="rhombus;whiteSpace=wrap;html=1;" vertex="1" parent="119">
                    <mxGeometry x="435" y="2020" width="80" height="80" as="geometry"/>
                </mxCell>
                <mxCell id="556" style="edgeStyle=none;html=1;exitX=0.5;exitY=0;exitDx=0;exitDy=0;entryX=0;entryY=0.25;entryDx=0;entryDy=0;" edge="1" parent="119" source="547" target="544">
                    <mxGeometry relative="1" as="geometry">
                        <mxPoint x="570" y="2480" as="targetPoint"/>
                        <Array as="points">
                            <mxPoint x="570" y="1660"/>
                            <mxPoint x="570" y="2460"/>
                        </Array>
                    </mxGeometry>
                </mxCell>
                <mxCell id="567" value="ทอนเงิน" style="rounded=0;whiteSpace=wrap;html=1;" vertex="1" parent="119">
                    <mxGeometry x="760" y="2639.9999999999995" width="120" height="60" as="geometry"/>
                </mxCell>
                <mxCell id="566" style="edgeStyle=none;html=1;" edge="1" parent="119" source="546" target="567">
                    <mxGeometry relative="1" as="geometry">
                        <mxPoint x="820" y="2639.9999999999995" as="targetPoint"/>
                    </mxGeometry>
                </mxCell>
                <mxCell id="569" value="&lt;font face=&quot;Sarabun&quot;&gt;สิ้นสุด&lt;/font&gt;" style="ellipse;whiteSpace=wrap;html=1;" vertex="1" parent="119">
                    <mxGeometry x="755" y="2740" width="130" height="30" as="geometry"/>
                </mxCell>
                <mxCell id="583" value="รับเงิน" style="rhombus;whiteSpace=wrap;html=1;" vertex="1" parent="119">
                    <mxGeometry x="330" y="1113.5" width="80" height="80" as="geometry"/>
                </mxCell>
                <mxCell id="140" style="edgeStyle=none;html=1;" parent="mvioNwK95yMqdUQ73LqQ-36" source="136" edge="1">
                    <mxGeometry relative="1" as="geometry">
                        <mxPoint x="100" y="480" as="targetPoint"/>
                    </mxGeometry>
                </mxCell>
                <mxCell id="mvioNwK95yMqdUQ73LqQ-70" value="&lt;font data-font-src=&quot;https://fonts.googleapis.com/css?family=Sarabun&quot; face=&quot;Sarabun&quot;&gt;โจทย์ปัญหา&lt;/font&gt;" style="swimlane;whiteSpace=wrap;html=1;" parent="WIyWlLk6GJQsqaUBKTNV-1" vertex="1">
                    <mxGeometry x="-720" y="320" width="645" height="310" as="geometry"/>
                </mxCell>
                <mxCell id="mvioNwK95yMqdUQ73LqQ-71" value="&lt;p style=&quot;line-height: 120%;&quot;&gt;&lt;font data-font-src=&quot;https://fonts.googleapis.com/css?family=Sarabun&quot; face=&quot;Sarabun&quot; style=&quot;font-size: 14px;&quot;&gt;&lt;b&gt;&lt;u&gt;โจทย์&lt;/u&gt;&lt;/b&gt; จงเขียน Flowchart เพื่อแสดงขั้นตอนการทำงาน ของเครื่องขายน้ำอัตโนมัติ โดยเครื่องมีการทำงานดังนี้&lt;br&gt;&amp;nbsp; &amp;nbsp; - เครื่องมีสินค้าประเภท &quot;เครื่องดื่ม&quot; อยู่ 3 อย่างคือ กาแฟอเมริกาโน่ร้อน , ลาเต้เย็น , น้ำเปล่า&lt;br&gt;&amp;nbsp; &amp;nbsp; - เครื่องมีสินค้าประเภท &quot;ขนม&quot; อยู่ 3 อย่างคือ ขนมชั้น, ฝอยทอง, ลำไยอบแห้ง&lt;br&gt;&amp;nbsp; &amp;nbsp; - เครื่องสามารถทอนเงินลูกค้าได้ทั้ง เหรียญ และ ธนบัตร (โดยจะต้องเลือกทอนเงินด้วยธนบัตรใหญ่ก่อน)&lt;br&gt;&lt;/font&gt;&lt;span style=&quot;font-family: Sarabun; background-color: initial;&quot;&gt;&amp;nbsp; &amp;nbsp; &amp;nbsp; &amp;nbsp;กรณีที่มีเงินทอนไม่พอ ให้แจ้งลูกค้าก่อนซื้อสินค้าว่า &quot;เครื่องไม่มีเงิน&quot;&lt;br&gt;&amp;nbsp; &amp;nbsp; -&amp;nbsp; เครื่องสามารถแสดงจำนวนสินค้าคงเหลือ ราคาสินค้า จำนวนสินค้าที่ลูกค้าสั่ง และรวมราคาที่ลูกค้าต้องจ่าย&lt;br&gt;&lt;/span&gt;&lt;span style=&quot;font-family: Sarabun; background-color: initial;&quot;&gt;&lt;b&gt;&lt;u&gt;เหตุการณ์&lt;/u&gt;&lt;/b&gt;&lt;br&gt;&amp;nbsp; &amp;nbsp; &lt;b&gt;ลูกค้า&lt;/b&gt;สามารถเลือกสินค้ากี่ชิ้นก็ได้ จนกว่าลูกค้าจะพอใจ เมื่อพอใจแล้ว สามารถกดปุ่ม &quot;ตกลง&quot; เพื่อคำนวณ&lt;br&gt;ยอดเงินทั้งหมดที่ลูกค้าต้องชำระ และลูกค้าต้องใส่เงินไปตามจำนวน(หรือมากกว่า) เพื่อทำการชำระสินค้า&lt;br&gt;และตู้ก็จะทอนเงินให้ลูกค้า พร้อมส่งสินค้าให้ลูกค้า&lt;br&gt;&amp;nbsp; &amp;nbsp; &lt;b&gt;แอ็ดมิน&lt;/b&gt;สามารถได้รับการแจ้งเตือนทุกครั้งที่มีลูกค้ากดซื้อสินค้าหน้าตู้ โดยจะมีข้อมูลสรุปกำไรทั้งหมด จำนวน&lt;br&gt;เงินทอนคงเหลือ(ว่าเหลือแต่ละเหรียญและธนบัตรอยู่ทั้งหมดอย่างละเท่าไหร่)&lt;/span&gt;&lt;/p&gt;" style="text;html=1;align=left;verticalAlign=top;resizable=0;points=[];autosize=1;strokeColor=none;fillColor=none;fontSize=14;" parent="mvioNwK95yMqdUQ73LqQ-70" vertex="1">
                    <mxGeometry x="15" y="20" width="630" height="260" as="geometry"/>
                </mxCell>
                <mxCell id="110" value="T" style="edgeStyle=none;html=1;" parent="WIyWlLk6GJQsqaUBKTNV-1" source="100" edge="1">
                    <mxGeometry x="-0.3333" relative="1" as="geometry">
                        <mxPoint x="-440" y="1120" as="targetPoint"/>
                        <mxPoint as="offset"/>
                    </mxGeometry>
                </mxCell>
                <mxCell id="111" value="T" style="edgeStyle=none;html=1;" parent="WIyWlLk6GJQsqaUBKTNV-1" source="101" edge="1">
                    <mxGeometry x="-0.3333" relative="1" as="geometry">
                        <mxPoint x="-440" y="1240" as="targetPoint"/>
                        <Array as="points">
                            <mxPoint x="-420" y="1240"/>
                        </Array>
                        <mxPoint as="offset"/>
                    </mxGeometry>
                </mxCell>
                <mxCell id="115" style="edgeStyle=none;html=1;" parent="WIyWlLk6GJQsqaUBKTNV-1" source="114" edge="1">
                    <mxGeometry relative="1" as="geometry">
                        <mxPoint x="-590" y="1120" as="targetPoint"/>
                    </mxGeometry>
                </mxCell>
                <mxCell id="223" style="edgeStyle=none;html=1;" parent="WIyWlLk6GJQsqaUBKTNV-1" source="222" edge="1">
                    <mxGeometry relative="1" as="geometry">
                        <mxPoint x="-280" y="880" as="targetPoint"/>
                        <Array as="points">
                            <mxPoint x="-800" y="1481"/>
                            <mxPoint x="-800" y="1180"/>
                            <mxPoint x="-800" y="880"/>
                        </Array>
                    </mxGeometry>
                </mxCell>
                <mxCell id="227" style="edgeStyle=none;html=1;" parent="WIyWlLk6GJQsqaUBKTNV-1" source="224" edge="1">
                    <mxGeometry relative="1" as="geometry">
                        <mxPoint x="-280" y="880" as="targetPoint"/>
                        <Array as="points">
                            <mxPoint x="260" y="1481"/>
                            <mxPoint x="260" y="880"/>
                        </Array>
                    </mxGeometry>
                </mxCell>
                <mxCell id="237" style="edgeStyle=none;html=1;exitX=0;exitY=0.5;exitDx=0;exitDy=0;" parent="WIyWlLk6GJQsqaUBKTNV-1" source="116" edge="1">
                    <mxGeometry relative="1" as="geometry">
                        <mxPoint x="-320" y="1580" as="targetPoint"/>
                        <mxPoint x="-755" y="1110" as="sourcePoint"/>
                        <Array as="points">
                            <mxPoint x="-750" y="1120"/>
                            <mxPoint x="-755" y="1580"/>
                        </Array>
                    </mxGeometry>
                </mxCell>
                <mxCell id="231" style="edgeStyle=none;html=1;" parent="WIyWlLk6GJQsqaUBKTNV-1" source="164" edge="1">
                    <mxGeometry relative="1" as="geometry">
                        <mxPoint x="-750" y="1240" as="targetPoint"/>
                    </mxGeometry>
                </mxCell>
                <mxCell id="232" style="edgeStyle=none;html=1;" parent="WIyWlLk6GJQsqaUBKTNV-1" source="166" edge="1">
                    <mxGeometry relative="1" as="geometry">
                        <mxPoint x="-750" y="1360" as="targetPoint"/>
                    </mxGeometry>
                </mxCell>
                <mxCell id="238" style="edgeStyle=none;html=1;exitX=1;exitY=0.5;exitDx=0;exitDy=0;" parent="WIyWlLk6GJQsqaUBKTNV-1" source="137" edge="1">
                    <mxGeometry relative="1" as="geometry">
                        <mxPoint x="-240" y="1580" as="targetPoint"/>
                        <mxPoint x="210" y="1120" as="sourcePoint"/>
                        <Array as="points">
                            <mxPoint x="210" y="1120"/>
                            <mxPoint x="210" y="1580"/>
                        </Array>
                    </mxGeometry>
                </mxCell>
                <mxCell id="235" style="edgeStyle=none;html=1;" parent="WIyWlLk6GJQsqaUBKTNV-1" source="207" edge="1">
                    <mxGeometry relative="1" as="geometry">
                        <mxPoint x="210" y="1240" as="targetPoint"/>
                    </mxGeometry>
                </mxCell>
                <mxCell id="236" style="edgeStyle=none;html=1;" parent="WIyWlLk6GJQsqaUBKTNV-1" source="206" edge="1">
                    <mxGeometry relative="1" as="geometry">
                        <mxPoint x="210" y="1360" as="targetPoint"/>
                    </mxGeometry>
                </mxCell>
                <mxCell id="373" style="edgeStyle=none;html=1;exitX=1;exitY=0.5;exitDx=0;exitDy=0;" parent="WIyWlLk6GJQsqaUBKTNV-1" source="499" edge="1">
                    <mxGeometry relative="1" as="geometry">
                        <mxPoint x="260" y="1480" as="targetPoint"/>
                        <Array as="points">
                            <mxPoint x="260" y="1640"/>
                        </Array>
                        <mxPoint x="120" y="1740" as="sourcePoint"/>
                    </mxGeometry>
                </mxCell>
                <mxCell id="504" value="T" style="edgeLabel;html=1;align=center;verticalAlign=middle;resizable=0;points=[];" parent="373" vertex="1" connectable="0">
                    <mxGeometry x="-0.8987" y="-2" relative="1" as="geometry">
                        <mxPoint y="-3" as="offset"/>
                    </mxGeometry>
                </mxCell>
                <mxCell id="448" style="edgeStyle=none;html=1;entryX=1;entryY=0.5;entryDx=0;entryDy=0;" parent="WIyWlLk6GJQsqaUBKTNV-1" edge="1" target="552">
                    <mxGeometry relative="1" as="geometry">
                        <mxPoint x="-120" y="2700" as="targetPoint"/>
                        <mxPoint x="-20" y="2700" as="sourcePoint"/>
                    </mxGeometry>
                </mxCell>
                <mxCell id="355" value="คำนวนว่าต้องทอน&lt;br&gt;กี่บาท" style="rounded=0;whiteSpace=wrap;html=1;" parent="WIyWlLk6GJQsqaUBKTNV-1" vertex="1">
                    <mxGeometry x="100" y="1990" width="120" height="60" as="geometry"/>
                </mxCell>
                <mxCell id="398" style="edgeStyle=none;html=1;entryX=0.5;entryY=0;entryDx=0;entryDy=0;" parent="WIyWlLk6GJQsqaUBKTNV-1" source="355" target="357" edge="1">
                    <mxGeometry relative="1" as="geometry"/>
                </mxCell>
                <mxCell id="321" value="แบงค์" style="rounded=0;whiteSpace=wrap;html=1;" parent="WIyWlLk6GJQsqaUBKTNV-1" vertex="1">
                    <mxGeometry x="240" y="2110" width="120" height="60" as="geometry"/>
                </mxCell>
                <mxCell id="399" style="edgeStyle=none;html=1;entryX=0;entryY=0.5;entryDx=0;entryDy=0;" parent="WIyWlLk6GJQsqaUBKTNV-1" source="357" target="321" edge="1">
                    <mxGeometry relative="1" as="geometry"/>
                </mxCell>
                <mxCell id="402" style="edgeStyle=none;html=1;entryX=0.5;entryY=0;entryDx=0;entryDy=0;" parent="WIyWlLk6GJQsqaUBKTNV-1" source="321" target="356" edge="1">
                    <mxGeometry relative="1" as="geometry"/>
                </mxCell>
                <mxCell id="505" style="edgeStyle=none;html=1;" edge="1" parent="WIyWlLk6GJQsqaUBKTNV-1" source="356">
                    <mxGeometry relative="1" as="geometry">
                        <mxPoint x="300" y="2300" as="targetPoint"/>
                    </mxGeometry>
                </mxCell>
                <mxCell id="356" value="ใช้แบงค์อะไร" style="rounded=0;whiteSpace=wrap;html=1;" parent="WIyWlLk6GJQsqaUBKTNV-1" vertex="1">
                    <mxGeometry x="240" y="2200" width="120" height="60" as="geometry"/>
                </mxCell>
                <mxCell id="450" style="edgeStyle=none;html=1;exitX=0;exitY=0.5;exitDx=0;exitDy=0;" parent="WIyWlLk6GJQsqaUBKTNV-1" source="547" edge="1">
                    <mxGeometry relative="1" as="geometry">
                        <mxPoint x="-280" y="2340" as="targetPoint"/>
                        <mxPoint x="-240" y="2340" as="sourcePoint"/>
                    </mxGeometry>
                </mxCell>
                <mxCell id="455" style="edgeStyle=none;html=1;" parent="WIyWlLk6GJQsqaUBKTNV-1" source="453" edge="1">
                    <mxGeometry relative="1" as="geometry">
                        <mxPoint x="20" y="2640" as="targetPoint"/>
                        <Array as="points">
                            <mxPoint x="-320" y="2640"/>
                        </Array>
                    </mxGeometry>
                </mxCell>
                <mxCell id="478" value="F" style="edgeLabel;html=1;align=center;verticalAlign=middle;resizable=0;points=[];" parent="455" vertex="1" connectable="0">
                    <mxGeometry x="-0.861" y="2" relative="1" as="geometry">
                        <mxPoint as="offset"/>
                    </mxGeometry>
                </mxCell>
                <mxCell id="456" style="edgeStyle=none;html=1;" parent="WIyWlLk6GJQsqaUBKTNV-1" source="452" edge="1">
                    <mxGeometry relative="1" as="geometry">
                        <mxPoint x="20" y="2520" as="targetPoint"/>
                        <Array as="points">
                            <mxPoint x="-320" y="2520"/>
                        </Array>
                    </mxGeometry>
                </mxCell>
                <mxCell id="479" value="F" style="edgeLabel;html=1;align=center;verticalAlign=middle;resizable=0;points=[];" parent="456" vertex="1" connectable="0">
                    <mxGeometry x="-0.8586" relative="1" as="geometry">
                        <mxPoint as="offset"/>
                    </mxGeometry>
                </mxCell>
                <mxCell id="457" style="edgeStyle=none;html=1;" parent="WIyWlLk6GJQsqaUBKTNV-1" source="451" edge="1">
                    <mxGeometry relative="1" as="geometry">
                        <mxPoint x="20" y="2400" as="targetPoint"/>
                        <Array as="points">
                            <mxPoint x="-320" y="2400"/>
                        </Array>
                    </mxGeometry>
                </mxCell>
                <mxCell id="480" value="F" style="edgeLabel;html=1;align=center;verticalAlign=middle;resizable=0;points=[];" parent="457" vertex="1" connectable="0">
                    <mxGeometry x="-0.8492" y="1" relative="1" as="geometry">
                        <mxPoint as="offset"/>
                    </mxGeometry>
                </mxCell>
                <mxCell id="462" style="edgeStyle=none;html=1;" parent="WIyWlLk6GJQsqaUBKTNV-1" source="452" edge="1">
                    <mxGeometry relative="1" as="geometry">
                        <mxPoint x="-400" y="2460" as="targetPoint"/>
                    </mxGeometry>
                </mxCell>
                <mxCell id="475" value="T" style="edgeLabel;html=1;align=center;verticalAlign=middle;resizable=0;points=[];" parent="462" vertex="1" connectable="0">
                    <mxGeometry x="-0.2511" relative="1" as="geometry">
                        <mxPoint as="offset"/>
                    </mxGeometry>
                </mxCell>
                <mxCell id="463" style="edgeStyle=none;html=1;" parent="WIyWlLk6GJQsqaUBKTNV-1" source="453" edge="1">
                    <mxGeometry relative="1" as="geometry">
                        <mxPoint x="-400" y="2580" as="targetPoint"/>
                    </mxGeometry>
                </mxCell>
                <mxCell id="476" value="T" style="edgeLabel;html=1;align=center;verticalAlign=middle;resizable=0;points=[];" parent="463" vertex="1" connectable="0">
                    <mxGeometry x="-0.2298" relative="1" as="geometry">
                        <mxPoint as="offset"/>
                    </mxGeometry>
                </mxCell>
                <mxCell id="464" style="edgeStyle=none;html=1;" parent="WIyWlLk6GJQsqaUBKTNV-1" edge="1">
                    <mxGeometry relative="1" as="geometry">
                        <mxPoint x="-400" y="2700" as="targetPoint"/>
                        <mxPoint x="-360" y="2700" as="sourcePoint"/>
                    </mxGeometry>
                </mxCell>
                <mxCell id="477" value="T" style="edgeLabel;html=1;align=center;verticalAlign=middle;resizable=0;points=[];" parent="464" vertex="1" connectable="0">
                    <mxGeometry x="-0.2085" relative="1" as="geometry">
                        <mxPoint as="offset"/>
                    </mxGeometry>
                </mxCell>
                <mxCell id="486" style="edgeStyle=none;html=1;entryX=0;entryY=0.5;entryDx=0;entryDy=0;" parent="WIyWlLk6GJQsqaUBKTNV-1" source="331" target="355" edge="1">
                    <mxGeometry relative="1" as="geometry"/>
                </mxCell>
                <mxCell id="487" value="T" style="edgeLabel;html=1;align=center;verticalAlign=middle;resizable=0;points=[];" parent="486" vertex="1" connectable="0">
                    <mxGeometry x="-0.8286" y="-3" relative="1" as="geometry">
                        <mxPoint x="1" y="-2" as="offset"/>
                    </mxGeometry>
                </mxCell>
                <mxCell id="507" style="edgeStyle=none;html=1;entryX=0;entryY=0.5;entryDx=0;entryDy=0;" edge="1" parent="WIyWlLk6GJQsqaUBKTNV-1" source="506" target="557">
                    <mxGeometry relative="1" as="geometry">
                        <mxPoint x="440" y="2340" as="targetPoint"/>
                    </mxGeometry>
                </mxCell>
                <mxCell id="570" value="T" style="edgeLabel;html=1;align=center;verticalAlign=middle;resizable=0;points=[];" vertex="1" connectable="0" parent="507">
                    <mxGeometry x="-0.7031" y="2" relative="1" as="geometry">
                        <mxPoint y="2" as="offset"/>
                    </mxGeometry>
                </mxCell>
                <mxCell id="512" style="edgeStyle=none;html=1;" edge="1" parent="WIyWlLk6GJQsqaUBKTNV-1" source="506">
                    <mxGeometry relative="1" as="geometry">
                        <mxPoint x="300" y="2420" as="targetPoint"/>
                    </mxGeometry>
                </mxCell>
                <mxCell id="573" value="F" style="edgeLabel;html=1;align=center;verticalAlign=middle;resizable=0;points=[];" vertex="1" connectable="0" parent="512">
                    <mxGeometry x="-0.4296" y="-1" relative="1" as="geometry">
                        <mxPoint as="offset"/>
                    </mxGeometry>
                </mxCell>
                <mxCell id="506" value="แบงค์ห้าร้อย" style="rhombus;whiteSpace=wrap;html=1;" vertex="1" parent="WIyWlLk6GJQsqaUBKTNV-1">
                    <mxGeometry x="260" y="2300" width="80" height="80" as="geometry"/>
                </mxCell>
                <mxCell id="510" style="edgeStyle=none;html=1;exitX=1;exitY=0.5;exitDx=0;exitDy=0;" edge="1" parent="WIyWlLk6GJQsqaUBKTNV-1" source="557">
                    <mxGeometry relative="1" as="geometry">
                        <mxPoint x="600" y="2340" as="targetPoint"/>
                        <mxPoint x="560" y="2340" as="sourcePoint"/>
                    </mxGeometry>
                </mxCell>
                <mxCell id="532" style="edgeStyle=none;html=1;" edge="1" parent="WIyWlLk6GJQsqaUBKTNV-1" source="511">
                    <mxGeometry relative="1" as="geometry">
                        <mxPoint x="300" y="2400" as="targetPoint"/>
                        <Array as="points">
                            <mxPoint x="640" y="2400"/>
                        </Array>
                    </mxGeometry>
                </mxCell>
                <mxCell id="579" value="F" style="edgeLabel;html=1;align=center;verticalAlign=middle;resizable=0;points=[];" vertex="1" connectable="0" parent="532">
                    <mxGeometry x="-0.9699" relative="1" as="geometry">
                        <mxPoint y="4" as="offset"/>
                    </mxGeometry>
                </mxCell>
                <mxCell id="537" style="edgeStyle=none;html=1;entryX=1;entryY=0;entryDx=0;entryDy=0;" edge="1" parent="WIyWlLk6GJQsqaUBKTNV-1" source="511" target="542">
                    <mxGeometry relative="1" as="geometry">
                        <mxPoint x="270" y="2960" as="targetPoint"/>
                        <Array as="points">
                            <mxPoint x="720" y="2340"/>
                            <mxPoint x="720" y="2800"/>
                        </Array>
                    </mxGeometry>
                </mxCell>
                <mxCell id="576" value="T" style="edgeLabel;html=1;align=center;verticalAlign=middle;resizable=0;points=[];" vertex="1" connectable="0" parent="537">
                    <mxGeometry x="-0.9773" y="-3" relative="1" as="geometry">
                        <mxPoint x="548" y="127" as="offset"/>
                    </mxGeometry>
                </mxCell>
                <mxCell id="511" value="พอหรือไม่" style="rhombus;whiteSpace=wrap;html=1;" vertex="1" parent="WIyWlLk6GJQsqaUBKTNV-1">
                    <mxGeometry x="600" y="2300" width="80" height="80" as="geometry"/>
                </mxCell>
                <mxCell id="514" style="edgeStyle=none;html=1;" edge="1" parent="WIyWlLk6GJQsqaUBKTNV-1" source="513">
                    <mxGeometry relative="1" as="geometry">
                        <mxPoint x="300" y="2540" as="targetPoint"/>
                    </mxGeometry>
                </mxCell>
                <mxCell id="574" value="F" style="edgeLabel;html=1;align=center;verticalAlign=middle;resizable=0;points=[];" vertex="1" connectable="0" parent="514">
                    <mxGeometry x="-0.5037" y="1" relative="1" as="geometry">
                        <mxPoint as="offset"/>
                    </mxGeometry>
                </mxCell>
                <mxCell id="525" style="edgeStyle=none;html=1;entryX=0;entryY=0.5;entryDx=0;entryDy=0;" edge="1" parent="WIyWlLk6GJQsqaUBKTNV-1" source="513" target="558">
                    <mxGeometry relative="1" as="geometry">
                        <mxPoint x="440" y="2460" as="targetPoint"/>
                    </mxGeometry>
                </mxCell>
                <mxCell id="571" value="T" style="edgeLabel;html=1;align=center;verticalAlign=middle;resizable=0;points=[];" vertex="1" connectable="0" parent="525">
                    <mxGeometry x="-0.6784" relative="1" as="geometry">
                        <mxPoint as="offset"/>
                    </mxGeometry>
                </mxCell>
                <mxCell id="513" value="แบงค์ร้อย" style="rhombus;whiteSpace=wrap;html=1;" vertex="1" parent="WIyWlLk6GJQsqaUBKTNV-1">
                    <mxGeometry x="260" y="2420" width="80" height="80" as="geometry"/>
                </mxCell>
                <mxCell id="517" style="edgeStyle=none;html=1;entryX=0.5;entryY=0;entryDx=0;entryDy=0;" edge="1" parent="WIyWlLk6GJQsqaUBKTNV-1" source="515">
                    <mxGeometry relative="1" as="geometry">
                        <mxPoint x="300" y="2660" as="targetPoint"/>
                    </mxGeometry>
                </mxCell>
                <mxCell id="575" value="F" style="edgeLabel;html=1;align=center;verticalAlign=middle;resizable=0;points=[];" vertex="1" connectable="0" parent="517">
                    <mxGeometry x="-0.659" y="-1" relative="1" as="geometry">
                        <mxPoint as="offset"/>
                    </mxGeometry>
                </mxCell>
                <mxCell id="527" style="edgeStyle=none;html=1;entryX=0;entryY=0.5;entryDx=0;entryDy=0;" edge="1" parent="WIyWlLk6GJQsqaUBKTNV-1" source="515" target="559">
                    <mxGeometry relative="1" as="geometry">
                        <mxPoint x="440" y="2580" as="targetPoint"/>
                    </mxGeometry>
                </mxCell>
                <mxCell id="572" value="T" style="edgeLabel;html=1;align=center;verticalAlign=middle;resizable=0;points=[];" vertex="1" connectable="0" parent="527">
                    <mxGeometry x="-0.6907" y="-2" relative="1" as="geometry">
                        <mxPoint as="offset"/>
                    </mxGeometry>
                </mxCell>
                <mxCell id="515" value="แบงค์ห้าสิบ" style="rhombus;whiteSpace=wrap;html=1;" vertex="1" parent="WIyWlLk6GJQsqaUBKTNV-1">
                    <mxGeometry x="260" y="2540" width="80" height="80" as="geometry"/>
                </mxCell>
                <mxCell id="528" style="edgeStyle=none;html=1;entryX=0;entryY=0.5;entryDx=0;entryDy=0;" edge="1" parent="WIyWlLk6GJQsqaUBKTNV-1" source="518" target="560">
                    <mxGeometry relative="1" as="geometry">
                        <mxPoint x="440" y="2690" as="targetPoint"/>
                    </mxGeometry>
                </mxCell>
                <mxCell id="518" value="แบงค์ยี่สิบ" style="rounded=0;whiteSpace=wrap;html=1;" vertex="1" parent="WIyWlLk6GJQsqaUBKTNV-1">
                    <mxGeometry x="240" y="2660" width="120" height="60" as="geometry"/>
                </mxCell>
                <mxCell id="526" style="edgeStyle=none;html=1;entryX=0;entryY=0.5;entryDx=0;entryDy=0;exitX=1;exitY=0.5;exitDx=0;exitDy=0;" edge="1" parent="WIyWlLk6GJQsqaUBKTNV-1" source="558" target="522">
                    <mxGeometry relative="1" as="geometry">
                        <mxPoint x="560" y="2460" as="sourcePoint"/>
                    </mxGeometry>
                </mxCell>
                <mxCell id="531" style="edgeStyle=none;html=1;exitX=1;exitY=0.5;exitDx=0;exitDy=0;" edge="1" parent="WIyWlLk6GJQsqaUBKTNV-1" source="559" target="523">
                    <mxGeometry relative="1" as="geometry">
                        <mxPoint x="560" y="2580" as="sourcePoint"/>
                    </mxGeometry>
                </mxCell>
                <mxCell id="529" style="edgeStyle=none;html=1;" edge="1" parent="WIyWlLk6GJQsqaUBKTNV-1" target="524">
                    <mxGeometry relative="1" as="geometry">
                        <mxPoint x="560" y="2690" as="sourcePoint"/>
                    </mxGeometry>
                </mxCell>
                <mxCell id="534" style="edgeStyle=none;html=1;" edge="1" parent="WIyWlLk6GJQsqaUBKTNV-1" source="522">
                    <mxGeometry relative="1" as="geometry">
                        <mxPoint x="300" y="2520" as="targetPoint"/>
                        <Array as="points">
                            <mxPoint x="640" y="2520"/>
                        </Array>
                    </mxGeometry>
                </mxCell>
                <mxCell id="580" value="F" style="edgeLabel;html=1;align=center;verticalAlign=middle;resizable=0;points=[];" vertex="1" connectable="0" parent="534">
                    <mxGeometry x="-0.9745" relative="1" as="geometry">
                        <mxPoint y="7" as="offset"/>
                    </mxGeometry>
                </mxCell>
                <mxCell id="539" style="edgeStyle=none;html=1;" edge="1" parent="WIyWlLk6GJQsqaUBKTNV-1" source="522">
                    <mxGeometry relative="1" as="geometry">
                        <mxPoint x="720" y="2460" as="targetPoint"/>
                    </mxGeometry>
                </mxCell>
                <mxCell id="577" value="T" style="edgeLabel;html=1;align=center;verticalAlign=middle;resizable=0;points=[];" vertex="1" connectable="0" parent="539">
                    <mxGeometry x="-0.3714" y="-1" relative="1" as="geometry">
                        <mxPoint as="offset"/>
                    </mxGeometry>
                </mxCell>
                <mxCell id="522" value="พอหรือไม่" style="rhombus;whiteSpace=wrap;html=1;" vertex="1" parent="WIyWlLk6GJQsqaUBKTNV-1">
                    <mxGeometry x="600" y="2420" width="80" height="80" as="geometry"/>
                </mxCell>
                <mxCell id="535" style="edgeStyle=none;html=1;" edge="1" parent="WIyWlLk6GJQsqaUBKTNV-1" source="523">
                    <mxGeometry relative="1" as="geometry">
                        <mxPoint x="300" y="2640" as="targetPoint"/>
                        <Array as="points">
                            <mxPoint x="640" y="2640"/>
                        </Array>
                    </mxGeometry>
                </mxCell>
                <mxCell id="581" value="F" style="edgeLabel;html=1;align=center;verticalAlign=middle;resizable=0;points=[];" vertex="1" connectable="0" parent="535">
                    <mxGeometry x="-0.9699" y="1" relative="1" as="geometry">
                        <mxPoint y="4" as="offset"/>
                    </mxGeometry>
                </mxCell>
                <mxCell id="540" style="edgeStyle=none;html=1;" edge="1" parent="WIyWlLk6GJQsqaUBKTNV-1" source="523">
                    <mxGeometry relative="1" as="geometry">
                        <mxPoint x="720" y="2580" as="targetPoint"/>
                    </mxGeometry>
                </mxCell>
                <mxCell id="578" value="T" style="edgeLabel;html=1;align=center;verticalAlign=middle;resizable=0;points=[];" vertex="1" connectable="0" parent="540">
                    <mxGeometry x="-0.4786" y="2" relative="1" as="geometry">
                        <mxPoint y="2" as="offset"/>
                    </mxGeometry>
                </mxCell>
                <mxCell id="523" value="พอหรือไม่" style="rhombus;whiteSpace=wrap;html=1;" vertex="1" parent="WIyWlLk6GJQsqaUBKTNV-1">
                    <mxGeometry x="600" y="2540" width="80" height="80" as="geometry"/>
                </mxCell>
                <mxCell id="536" style="edgeStyle=none;html=1;" edge="1" parent="WIyWlLk6GJQsqaUBKTNV-1" source="524">
                    <mxGeometry relative="1" as="geometry">
                        <mxPoint x="40" y="1840" as="targetPoint"/>
                        <Array as="points">
                            <mxPoint x="640" y="2760"/>
                            <mxPoint x="800" y="2760"/>
                            <mxPoint x="800" y="1840"/>
                        </Array>
                    </mxGeometry>
                </mxCell>
                <mxCell id="582" value="F" style="edgeLabel;html=1;align=center;verticalAlign=middle;resizable=0;points=[];" vertex="1" connectable="0" parent="536">
                    <mxGeometry x="-0.9915" y="-1" relative="1" as="geometry">
                        <mxPoint y="4" as="offset"/>
                    </mxGeometry>
                </mxCell>
                <mxCell id="541" value="T" style="edgeStyle=none;html=1;" edge="1" parent="WIyWlLk6GJQsqaUBKTNV-1" source="524">
                    <mxGeometry x="-0.5" relative="1" as="geometry">
                        <mxPoint x="720" y="2690" as="targetPoint"/>
                        <mxPoint as="offset"/>
                    </mxGeometry>
                </mxCell>
                <mxCell id="524" value="พอหรือไม่" style="rhombus;whiteSpace=wrap;html=1;" vertex="1" parent="WIyWlLk6GJQsqaUBKTNV-1">
                    <mxGeometry x="600" y="2650" width="80" height="80" as="geometry"/>
                </mxCell>
                <mxCell id="543" style="edgeStyle=none;html=1;" edge="1" parent="WIyWlLk6GJQsqaUBKTNV-1" source="542">
                    <mxGeometry relative="1" as="geometry">
                        <mxPoint x="170" y="3080" as="targetPoint"/>
                    </mxGeometry>
                </mxCell>
                <mxCell id="553" style="edgeStyle=none;html=1;exitX=0.5;exitY=0;exitDx=0;exitDy=0;" edge="1" parent="WIyWlLk6GJQsqaUBKTNV-1" source="552">
                    <mxGeometry relative="1" as="geometry">
                        <mxPoint x="-80" y="2660" as="targetPoint"/>
                    </mxGeometry>
                </mxCell>
                <mxCell id="554" style="edgeStyle=none;html=1;exitX=0.5;exitY=0;exitDx=0;exitDy=0;" edge="1" parent="WIyWlLk6GJQsqaUBKTNV-1" source="551">
                    <mxGeometry relative="1" as="geometry">
                        <mxPoint x="-80" y="2540.263157894737" as="targetPoint"/>
                    </mxGeometry>
                </mxCell>
                <mxCell id="555" style="edgeStyle=none;html=1;exitX=0.5;exitY=0;exitDx=0;exitDy=0;" edge="1" parent="WIyWlLk6GJQsqaUBKTNV-1" source="550">
                    <mxGeometry relative="1" as="geometry">
                        <mxPoint x="-80" y="2420" as="targetPoint"/>
                    </mxGeometry>
                </mxCell>
                <mxCell id="562" style="edgeStyle=none;html=1;exitX=0.5;exitY=0;exitDx=0;exitDy=0;entryX=1;entryY=0.5;entryDx=0;entryDy=0;" edge="1" parent="WIyWlLk6GJQsqaUBKTNV-1" source="557" target="544">
                    <mxGeometry relative="1" as="geometry">
                        <mxPoint x="400" y="2720" as="targetPoint"/>
                        <Array as="points">
                            <mxPoint x="400" y="2300"/>
                            <mxPoint x="400" y="3110"/>
                        </Array>
                    </mxGeometry>
                </mxCell>
                <mxCell id="557" value="กี่แบงค์" style="rhombus;whiteSpace=wrap;html=1;" vertex="1" parent="WIyWlLk6GJQsqaUBKTNV-1">
                    <mxGeometry x="460" y="2300" width="80" height="80" as="geometry"/>
                </mxCell>
                <mxCell id="563" style="edgeStyle=none;html=1;" edge="1" parent="WIyWlLk6GJQsqaUBKTNV-1" source="558">
                    <mxGeometry relative="1" as="geometry">
                        <mxPoint x="400" y="2420" as="targetPoint"/>
                        <Array as="points">
                            <mxPoint x="500" y="2420"/>
                        </Array>
                    </mxGeometry>
                </mxCell>
                <mxCell id="558" value="กี่แบงค์" style="rhombus;whiteSpace=wrap;html=1;" vertex="1" parent="WIyWlLk6GJQsqaUBKTNV-1">
                    <mxGeometry x="460" y="2420" width="80" height="80" as="geometry"/>
                </mxCell>
                <mxCell id="564" style="edgeStyle=none;html=1;exitX=0.5;exitY=0;exitDx=0;exitDy=0;" edge="1" parent="WIyWlLk6GJQsqaUBKTNV-1" source="559">
                    <mxGeometry relative="1" as="geometry">
                        <mxPoint x="400" y="2540" as="targetPoint"/>
                    </mxGeometry>
                </mxCell>
                <mxCell id="559" value="กี่แบงค์" style="rhombus;whiteSpace=wrap;html=1;" vertex="1" parent="WIyWlLk6GJQsqaUBKTNV-1">
                    <mxGeometry x="460" y="2540" width="80" height="80" as="geometry"/>
                </mxCell>
                <mxCell id="561" value="" style="edgeStyle=none;html=1;" edge="1" parent="WIyWlLk6GJQsqaUBKTNV-1" source="560" target="524">
                    <mxGeometry relative="1" as="geometry"/>
                </mxCell>
                <mxCell id="565" style="edgeStyle=none;html=1;exitX=0.5;exitY=0;exitDx=0;exitDy=0;" edge="1" parent="WIyWlLk6GJQsqaUBKTNV-1" source="560">
                    <mxGeometry relative="1" as="geometry">
                        <mxPoint x="400" y="2650" as="targetPoint"/>
                    </mxGeometry>
                </mxCell>
                <mxCell id="560" value="กี่แบงค์" style="rhombus;whiteSpace=wrap;html=1;" vertex="1" parent="WIyWlLk6GJQsqaUBKTNV-1">
                    <mxGeometry x="460" y="2650" width="80" height="80" as="geometry"/>
                </mxCell>
                <mxCell id="568" style="edgeStyle=none;html=1;" edge="1" parent="WIyWlLk6GJQsqaUBKTNV-1" source="567">
                    <mxGeometry relative="1" as="geometry">
                        <mxPoint x="170" y="3379.9999999999995" as="targetPoint"/>
                    </mxGeometry>
                </mxCell>
                <mxCell id="584" style="edgeStyle=none;html=1;" edge="1" parent="WIyWlLk6GJQsqaUBKTNV-1" source="583">
                    <mxGeometry relative="1" as="geometry">
                        <mxPoint x="-70" y="3100" as="targetPoint"/>
                        <Array as="points">
                            <mxPoint x="-720" y="1800"/>
                            <mxPoint x="-720" y="3100"/>
                        </Array>
                    </mxGeometry>
                </mxCell>
            </root>
        </mxGraphModel>
    </diagram>
</mxfile>